<?xml version="1.0" standalone="no"?>
<!DOCTYPE svg PUBLIC "-//W3C//DTD SVG 20010904//EN"
 "http://www.w3.org/TR/2001/REC-SVG-20010904/DTD/svg10.dtd">
<svg version="1.0" xmlns="http://www.w3.org/2000/svg"
 width="512.000000pt" height="512.000000pt" viewBox="0 0 512.000000 512.000000"
 preserveAspectRatio="xMidYMid meet">

<g transform="translate(0.000000,512.000000) scale(0.100000,-0.100000)"
fill="#FFFFFF" stroke="none">
<path d="M647 3678 c-350 -601 -638 -1100 -642 -1108 -6 -17 1272 -2198 1298
-2214 9 -6 18 -8 20 -6 3 3 293 501 646 1108 l641 1102 -649 1103 c-357 606
-655 1103 -663 1105 -10 2 -218 -347 -651 -1090z"/>
<path d="M1892 4746 c5 -26 1095 -1917 1112 -1928 13 -9 657 -11 680 -2 9 3
16 11 16 17 0 5 -251 444 -557 973 l-558 964 -349 0 -348 0 4 -24z"/>
<path d="M3145 4760 c-4 -6 277 -501 624 -1100 347 -599 631 -1094 631 -1100
0 -6 -284 -501 -631 -1100 -347 -599 -628 -1094 -624 -1100 4 -6 124 -10 350
-10 l345 0 23 38 c89 140 1251 2160 1251 2172 0 13 -1161 2029 -1251 2173
l-23 37 -345 0 c-226 0 -346 -4 -350 -10z"/>
<path d="M2968 2248 c-64 -99 -1072 -1856 -1076 -1874 l-4 -24 349 0 349 0
544 942 c300 517 546 949 548 960 3 17 -12 18 -346 18 l-350 0 -14 -22z"/>
</g>
</svg>
